<svg xmlns="http://www.w3.org/2000/svg" xmlns:xlink="http://www.w3.org/1999/xlink" version="1.1" width="256" height="256" viewBox="0 0 256 256" xml:space="preserve">
<desc>Created with Fabric.js 1.7.22</desc>
<defs>
</defs>
<g transform="translate(128 128) scale(0.72 0.72)" style="">
	<g style="stroke: none; stroke-width: 0; stroke-dasharray: none; stroke-linecap: butt; stroke-linejoin: miter; stroke-miterlimit: 10; fill: none; fill-rule: nonzero; opacity: 1;" transform="translate(-175.05 -175.05000000000004) scale(3.89 3.89)" >
	<path d="M 46.618 90 c -12.452 0 -24.159 -4.849 -32.964 -13.654 c -18.176 -18.177 -18.176 -47.752 0 -65.928 c 4.469 -4.469 9.687 -7.925 15.507 -10.273 c 0.813 -0.327 1.742 -0.089 2.295 0.588 c 0.554 0.677 0.604 1.635 0.124 2.366 c -10.35 15.731 -8.183 36.83 5.154 50.167 l 0 0 C 50.072 66.602 71.171 68.769 86.9 58.419 c 0.73 -0.482 1.69 -0.431 2.366 0.123 c 0.678 0.555 0.915 1.484 0.588 2.296 c -2.347 5.82 -5.803 11.038 -10.272 15.508 C 70.777 85.151 59.07 90 46.618 90 z M 25.076 6.595 c -3.118 1.827 -5.994 4.051 -8.594 6.651 c -16.616 16.617 -16.616 43.654 0 60.271 C 24.532 81.567 35.234 86 46.618 86 s 22.086 -4.433 30.136 -12.482 c 2.6 -2.601 4.824 -5.477 6.651 -8.595 c -16.447 7.582 -36.384 4.285 -49.499 -8.829 l 0 0 C 20.792 42.979 17.495 23.042 25.076 6.595 z" style="stroke: none; stroke-width: 1; stroke-dasharray: none; stroke-linecap: butt; stroke-linejoin: miter; stroke-miterlimit: 10; fill: rgb(0,0,0); fill-rule: nonzero; opacity: 1;" transform=" matrix(1 0 0 1 0 0) " stroke-linecap="round" />
	<path d="M 46.618 90 c -12.452 0 -24.159 -4.849 -32.964 -13.654 c -18.176 -18.177 -18.176 -47.752 0 -65.928 c 4.469 -4.469 9.687 -7.925 15.507 -10.273 c 0.813 -0.327 1.742 -0.089 2.295 0.588 c 0.554 0.677 0.604 1.635 0.124 2.366 c -10.35 15.731 -8.183 36.83 5.154 50.167 l 0 0 C 50.072 66.602 71.171 68.769 86.9 58.419 c 0.73 -0.482 1.69 -0.431 2.366 0.123 c 0.678 0.555 0.915 1.484 0.588 2.296 c -2.347 5.82 -5.803 11.038 -10.272 15.508 C 70.777 85.151 59.07 90 46.618 90 z M 25.076 6.595 c -3.118 1.827 -5.994 4.051 -8.594 6.651 c -16.616 16.617 -16.616 43.654 0 60.271 C 24.532 81.567 35.234 86 46.618 86 s 22.086 -4.433 30.136 -12.482 c 2.6 -2.601 4.824 -5.477 6.651 -8.595 c -16.447 7.582 -36.384 4.285 -49.499 -8.829 l 0 0 C 20.792 42.979 17.495 23.042 25.076 6.595 z" style="stroke: none; stroke-width: 1; stroke-dasharray: none; stroke-linecap: butt; stroke-linejoin: miter; stroke-miterlimit: 10; fill: rgb(0,0,0); fill-rule: nonzero; opacity: 1;" transform=" matrix(1 0 0 1 0 0) " stroke-linecap="round" />
	<path d="M 64.546 56.373 c -1.258 0 -2.37 -0.805 -2.77 -2.003 l 0 0 c -1.492 -4.478 -5.056 -8.042 -9.532 -9.533 c -1.198 -0.399 -2.003 -1.512 -2.003 -2.769 s 0.805 -2.37 2.002 -2.769 c 4.478 -1.492 8.041 -5.055 9.533 -9.532 c 0.399 -1.198 1.512 -2.003 2.77 -2.003 c 1.257 0 2.369 0.805 2.769 2.003 c 1.491 4.478 5.055 8.041 9.532 9.532 c 1.198 0.399 2.003 1.512 2.003 2.769 c 0.001 1.257 -0.804 2.37 -2.001 2.77 c -4.479 1.492 -8.042 5.056 -9.534 9.533 C 66.915 55.567 65.803 56.373 64.546 56.373 z M 55.983 42.068 c 3.693 1.848 6.714 4.869 8.563 8.562 c 1.848 -3.693 4.868 -6.714 8.562 -8.562 c -3.693 -1.848 -6.715 -4.869 -8.563 -8.562 C 62.697 37.199 59.676 40.22 55.983 42.068 z" style="stroke: none; stroke-width: 1; stroke-dasharray: none; stroke-linecap: butt; stroke-linejoin: miter; stroke-miterlimit: 10; fill: rgb(0,0,0); fill-rule: nonzero; opacity: 1;" transform=" matrix(1 0 0 1 0 0) " stroke-linecap="round" />
	<path d="M 73.989 22.606 C 73.988 22.606 73.988 22.606 73.989 22.606 c -1.083 0 -2.041 -0.693 -2.384 -1.723 c -0.744 -2.232 -2.521 -4.009 -4.754 -4.753 c -1.029 -0.342 -1.722 -1.3 -1.723 -2.382 s 0.691 -2.041 1.722 -2.384 c 2.233 -0.744 4.011 -2.521 4.755 -4.754 c 0.343 -1.03 1.301 -1.722 2.384 -1.722 c 1.082 0 2.04 0.692 2.383 1.723 c 0.744 2.232 2.521 4.009 4.754 4.753 c 1.03 0.343 1.723 1.3 1.723 2.383 s -0.692 2.041 -1.724 2.384 c -2.231 0.744 -4.009 2.521 -4.753 4.754 C 76.029 21.914 75.071 22.606 73.989 22.606 z M 75.399 19.616 c 0 0.001 0.001 0.002 0.001 0.003 v 0.001 C 75.4 19.619 75.399 19.618 75.399 19.616 z M 70.956 13.746 c 1.189 0.813 2.22 1.844 3.033 3.033 c 0.813 -1.189 1.843 -2.22 3.032 -3.033 c -1.189 -0.813 -2.22 -1.844 -3.033 -3.033 C 73.176 11.903 72.146 12.933 70.956 13.746 z" style="stroke: none; stroke-width: 1; stroke-dasharray: none; stroke-linecap: butt; stroke-linejoin: miter; stroke-miterlimit: 10; fill: rgb(0,0,0); fill-rule: nonzero; opacity: 1;" transform=" matrix(1 0 0 1 0 0) " stroke-linecap="round" />
	<path d="M 43.875 31.168 C 43.874 31.168 43.874 31.168 43.875 31.168 c -1.131 0 -2.131 -0.724 -2.49 -1.799 v 0 c -0.951 -2.854 -3.222 -5.125 -6.076 -6.077 c -1.076 -0.358 -1.8 -1.359 -1.8 -2.49 c 0 -1.131 0.724 -2.132 1.8 -2.49 c 2.854 -0.951 5.125 -3.223 6.076 -6.076 c 0.358 -1.076 1.359 -1.8 2.49 -1.8 c 1.13 0 2.131 0.724 2.49 1.8 c 0.951 2.854 3.223 5.125 6.076 6.076 c 1.077 0.358 1.8 1.359 1.8 2.49 s -0.723 2.132 -1.8 2.49 c -2.854 0.951 -5.125 3.223 -6.076 6.077 C 46.005 30.446 45.004 31.168 43.875 31.168 z M 45.178 28.102 c 0 0.001 0 0.001 0.001 0.002 l 0 0 C 45.179 28.103 45.179 28.103 45.178 28.102 z M 39.369 20.801 c 1.832 1.125 3.38 2.674 4.505 4.506 c 1.125 -1.832 2.673 -3.38 4.505 -4.506 c -1.832 -1.125 -3.38 -2.673 -4.506 -4.505 C 42.749 18.128 41.201 19.676 39.369 20.801 z" style="stroke: none; stroke-width: 1; stroke-dasharray: none; stroke-linecap: butt; stroke-linejoin: miter; stroke-miterlimit: 10; fill: rgb(0,0,0); fill-rule: nonzero; opacity: 1;" transform=" matrix(1 0 0 1 0 0) " stroke-linecap="round" />
</g>
</g>
</svg>